<svg xmlns="http://www.w3.org/2000/svg" viewBox="10 10 80 80">
	<path fill="none" d="M0 100V0h100v100H0zm49.9-29.9c-1.9-4.7-3.8-9.6-5.8-14.6 3.3-.3 3.4-.4 4.6.5 2.7 2 5.3 4 7.9 6 3.4 2.6 6.7 5.3 10.1 8 1.3-.9 2.3-1.5 3.4-2.3V54.1c4.6-2.7 7-6.2 7.1-11.8.1-5.8-4.2-8.4-7.4-12.5V17.6c-2.7-1.4-4.8-.6-6.5.7-3.9 3-7.9 6.1-11.6 9.4-2.4 2.1-4.9 3.2-8.1 3.1-6-.1-12-.1-18 0S16 33.6 14 39.2c-.4 1.2-.7 2.5-.9 3.3 1.4 9 6.9 12.6 15 12.5 2.1 5.2 4.1 9.9 6.1 14.6 1.2 2.7 1.8 5.8 5.3 7 3.7-1.3 7.8-2.4 10.4-6.5zm34.9-27.6c-.3-1.1-.6-2.4-.8-3.7-.6-4.8-3.6-8.1-7-11-1-.8-2.1-1-3.1 1.2 5 3.2 7.9 8.2 8 14.2.1 6.1-3.7 10.6-8.2 14.6.9.6 1.4 1.1 1.6 1 1.1-.6 2.3-1.1 3.3-2 4-3.7 5.7-8.4 6.2-14.3z"/>
	<path fill-rule="evenodd" clip-rule="evenodd" fill="#0085b9" d="M49.9 70.1c-2.6 4.1-6.7 5.2-10.4 6.8-3.4-1.2-4.1-4.3-5.3-7-2.1-4.7-4-9.5-6.1-14.6-8.1.1-13.6-3.5-15-12.5.2-.8.5-2.1.9-3.3 2-5.6 5.6-8.3 11.6-8.4 6-.1 12-.1 18 0 3.2.1 5.7-1 8.1-3.1 3.7-3.3 7.6-6.4 11.6-9.4 1.7-1.3 3.8-2.1 6.5-.7v12.2c3.2 4.1 7.4 6.7 7.4 12.5-.1 5.6-2.4 9.1-7.1 11.8V68c-1.1.7-2 1.4-3.4 2.3-3.4-2.7-6.7-5.4-10.1-8-2.6-2-5.3-4-7.9-6-1.3-.9-1.3-.9-4.6-.5 2 4.7 3.9 9.6 5.8 14.3zm16.9-50c-3.5.9-3.8 3-3.8 5.5v35c0 2.5.4 4.6 3.9 5.1.4-2.4 1-4.6 1.1-6.8.1-10.7.1-21.3 0-32-.1-2.2-.8-4.4-1.2-6.8zm3.9 15.8c-1.3 6.4-1 11.3 1 14.2 1.3-2.5 2.5-4.8 3.6-6.8-1.1-2.9-1.6-5.5-4.6-7.4z"/>
	<path fill-rule="evenodd" clip-rule="evenodd" fill="#0085b9" d="M84.8 42.5c-.5 5.9-2.2 10.7-6.2 14.3-.9.8-2.1 1.4-3.3 2-.2.1-.7-.5-1.6-1 4.5-4 8.3-8.5 8.2-14.6-.1-6-3-11-8-14.2 1-2.2 2.1-2 3.1-1.2 3.4 3 6.4 6.3 7 11 .2 1.3.6 2.6.8 3.7z"/>
	<path clip-rule="evenodd" fill="none" d="M66.8 20.1c.4 2.4 1.1 4.6 1.2 6.8.1 10.7.1 21.3 0 32 0 2.3-.7 4.5-1.1 6.8-3.5-.5-3.9-2.6-3.9-5.1v-15-20c-.1-2.4.3-4.6 3.8-5.5zM70.7 35.9c3 1.8 3.5 4.5 4.5 7.4-1.1 2-2.2 4.3-3.6 6.8-1.9-2.9-2.2-7.8-.9-14.2z"/>
</svg>